<?xml version="1.0" encoding="UTF-8" standalone="no"?>
<svg
   width="512"
   height="512"
   viewBox="0 0 512 512"
   fill="none"
   version="1.1"
   id="svg205529"
   sodipodi:docname="loretta_logo.svg"
   inkscape:version="1.1.2 (b8e25be833, 2022-02-05)"
   xmlns:inkscape="http://www.inkscape.org/namespaces/inkscape"
   xmlns:sodipodi="http://sodipodi.sourceforge.net/DTD/sodipodi-0.dtd"
   xmlns="http://www.w3.org/2000/svg"
   xmlns:svg="http://www.w3.org/2000/svg">
  <defs
     id="defs205533" />
  <sodipodi:namedview
     id="namedview205531"
     pagecolor="#505050"
     bordercolor="#eeeeee"
     borderopacity="1"
     inkscape:pageshadow="0"
     inkscape:pageopacity="0"
     inkscape:pagecheckerboard="0"
     showgrid="false"
     lock-margins="true"
     fit-margin-top="22"
     fit-margin-left="22"
     fit-margin-right="22"
     fit-margin-bottom="22"
     inkscape:zoom="1.4142136"
     inkscape:cx="267.63992"
     inkscape:cy="277.18586"
     inkscape:window-width="1920"
     inkscape:window-height="1017"
     inkscape:window-x="-8"
     inkscape:window-y="-8"
     inkscape:window-maximized="1"
     inkscape:current-layer="svg205529" />
  <path
     d="m 234.796,234.777 c 28.36288,-21.15057 69.47383,13.78918 42.427,42.427 -5.43,5.434 -12.934,8.796 -21.223,8.796 -16.569,0 -30,-13.431 -30,-30 0,-8.289 3.81197,-15.37726 8.796,-21.223 z"
     fill="#2ab348"
     id="path205487"
     sodipodi:nodetypes="ccssc" />
  <path
     d="m 372.796,372.777 c 25.0735,-22.41695 65.12719,16.64149 42.427,42.427 -5.43,5.434 -12.934,8.796 -21.223,8.796 -16.569,0 -30,-13.431 -30,-30 0,-8.289 3.362,-15.793 8.796,-21.223 z"
     fill="#2ab348"
     id="path205489"
     sodipodi:nodetypes="ccssc" />
  <path
     d="m 90.5467,90.5273 c 8.3125,-7.90625 18.60555,1.502807 9.8993,9.8997 -5.102106,5.08808 -9.9419,10.438 -14.5202,16.01 L 75.1086,107.55 c 4.8677,-5.925 10.0207,-11.6059 15.4381,-17.0227 z"
     fill="#2ab348"
     id="path205491"
     sodipodi:nodetypes="ccccc" />
  <path
     d="m 49.5888,145.674 12.3413,6.61 c -6.7461,12.595 -12.3002,25.92 -16.5132,39.826 l -13.3986,-4.06 c 4.4837,-14.799 10.3938,-28.978 17.5705,-42.376 z"
     fill="#2ab348"
     id="path205493" />
  <path
     d="m 22,256 c 0,-7.742 0.376,-15.396 1.1106,-22.945 l 13.9342,1.356 C 36.3539,241.51 36,248.712 36,256 c 0,7.288 0.3539,14.49 1.0448,21.589 l -13.9342,1.356 C 22.376,271.396 22,263.742 22,256 Z"
     fill="#2ab348"
     id="path205495" />
  <path
     d="m 32.0183,323.95 13.3986,-4.06 c 4.213,13.906 9.7671,27.231 16.5132,39.826 l -12.3413,6.61 C 42.4121,352.928 36.502,338.749 32.0183,323.95 Z"
     fill="#2ab348"
     id="path205497" />
  <path
     d="m 152.284,450.07 -6.61,12.341 c 13.398,7.177 27.577,13.087 42.376,17.571 l 4.06,-13.399 c -13.906,-4.213 -27.231,-9.767 -39.826,-16.513 z"
     fill="#2ab348"
     id="path205499" />
  <path
     d="m 233.055,488.889 1.356,-13.934 C 241.51,475.646 248.712,476 256,476 c 7.288,0 14.49,-0.354 21.589,-1.045 l 1.356,13.934 C 271.396,489.624 263.742,490 256,490 c -7.742,0 -15.396,-0.376 -22.945,-1.111 z"
     fill="#2ab348"
     id="path205501" />
  <path
     d="m 366.326,462.411 c -13.398,7.177 -27.577,13.087 -42.376,17.571 l -4.06,-13.399 c 13.906,-4.213 27.231,-9.767 39.826,-16.513 z"
     fill="#2ab348"
     id="path205503" />
  <path
     d="m 148,394 c 0,16.569 -13.431,30 -30,30 -16.569,0 -30,-13.431 -30,-30 0,-16.569 13.431,-30 30,-30 16.569,0 30,13.431 30,30 z"
     fill="#2ab348"
     id="path205505" />
  <path
     d="m 277.589,37.0448 1.356,-13.9342 C 271.396,22.376 263.742,22 256,22 c -7.742,0 -15.396,0.376 -22.945,1.1106 l 1.356,13.9342 C 241.51,36.3539 248.712,36 256,36 c 7.288,0 14.49,0.3539 21.589,1.0448 z"
     fill="#1d8f36"
     id="path205507" />
  <path
     d="m 342.933,53.839 c 4.333,-3.4538 9.025,-6.4778 14.009,-9.0073 -10.581,-5.0674 -21.603,-9.3628 -32.992,-12.8134 l -4.06,13.3986 c 7.877,2.3862 15.566,5.2026 23.043,8.4221 z"
     fill="#1d8f36"
     id="path205509" />
  <path
     d="m 466.583,192.11 13.399,-4.06 c -3.451,-11.389 -7.746,-22.411 -12.813,-32.992 -2.53,4.984 -5.554,9.676 -9.008,14.009 3.22,7.477 6.036,15.167 8.422,23.043 z"
     fill="#1d8f36"
     id="path205511" />
  <path
     d="M 277.223,277.204 C 282.646,271.775 286,264.279 286,256 c 0,-16.569 -13.431,-30 -30,-30 -8.279,0 -15.775,3.354 -21.203,8.777 z"
     fill="#1d8f36"
     id="path205513" />
  <path
     d="M 415.223,415.204 372.797,372.777 C 378.225,367.354 385.721,364 394,364 c 16.569,0 30,13.431 30,30 0,8.279 -3.354,15.775 -8.777,21.204 z"
     fill="#1d8f36"
     id="path205515" />
  <path
     d="m 100.446,100.427 c 5.089,-5.0885 10.426,-9.9288 15.991,-14.5012 L 107.55,75.1086 C 101.632,79.9705 95.9578,85.117 90.5469,90.5273 Z"
     fill="#1d8f36"
     id="path205517" />
  <path
     d="m 488.89,278.945 -13.935,-1.356 C 475.646,270.49 476,263.288 476,256 c 0,-7.288 -0.354,-14.49 -1.045,-21.589 l 13.935,-1.356 c 0.734,7.549 1.11,15.203 1.11,22.945 0,7.742 -0.376,15.396 -1.11,22.945 z"
     fill="#1d8f36"
     id="path205519" />
  <path
     d="m 188.051,32.0183 4.059,13.3986 c -13.906,4.213 -27.231,9.7671 -39.826,16.5132 l -6.61,-12.3413 c 13.399,-7.1767 27.578,-13.0868 42.377,-17.5705 z"
     fill="#1d8f36"
     id="path205521" />
  <path
     d="m 462.411,366.326 -12.341,-6.61 c 6.746,-12.595 12.3,-25.92 16.513,-39.826 l 13.399,4.06 c -4.484,14.799 -10.394,28.978 -17.571,42.376 z"
     fill="#1d8f36"
     id="path205523" />
  <path
     fill-rule="evenodd"
     clip-rule="evenodd"
     d="M 219.23,219.231 C 209.82,228.641 204,241.641 204,256 c 0,10.379 3.041,20.047 8.28,28.164 L 146.164,350.28 C 138.048,345.041 128.379,342 118,342 105.093,342 93.2841,346.702 84.1935,354.488 67.5294,325.481 58,291.853 58,256 58,201.324 80.1618,151.824 115.993,115.993 146.22181,91.067486 238.98,202.7935 219.23,219.231 Z M 342,394 c 0,12.907 4.703,24.716 12.488,33.806 C 325.481,444.471 291.853,454 256,454 220.147,454 186.519,444.471 157.512,427.806 165.297,418.716 170,406.907 170,394 c 0,-10.379 -3.041,-20.048 -8.28,-28.164 l 66.116,-66.116 c 8.116,5.239 17.785,8.28 28.164,8.28 10.379,0 20.048,-3.041 28.164,-8.28 l 66.116,66.116 C 345.041,373.952 342,383.621 342,394 Z"
     fill="#1969e2"
     id="path205525"
     sodipodi:nodetypes="csccscsccscscsccsccs" />
  <path
     fill-rule="evenodd"
     clip-rule="evenodd"
     d="M 440.975,185.22 C 427.67,194.535 411.474,200 394,200 c -45.287,0 -82,-36.713 -82,-82 0,-17.473 5.466,-33.67 14.78,-46.9741 C 304.801,62.6106 280.939,58 256,58 201.324,58 151.824,80.162 115.993,115.993 L 219.231,219.231 C 228.641,209.82 241.641,204 256,204 c 28.719,0 52,23.281 52,52 0,10.379 -3.04,20.048 -8.279,28.164 l 66.116,66.116 C 373.953,345.041 383.622,342 394,342 c 12.908,0 24.716,4.703 33.807,12.488 C 444.471,325.481 454,291.853 454,256 c 0,-24.939 -4.61,-48.8 -13.025,-70.78 z M 454,118 c 0,33.137 -26.862,60 -60,60 -33.137,0 -60,-26.863 -60,-60 0,-33.1371 26.863,-60 60,-60 33.138,0 60,26.8629 60,60 z"
     fill="#2143ba"
     id="path205527" />
</svg>
